name D:\school\WTK\thesis\model\3dpredictsim\Results\test_WL_v2\Pog_s1_bCst_PF_toein_gaussian_ig24.mot
datacolumns 128
datarows 4
range 1.70145601 1.73548513
endheader
time	pelvis_tilt	pelvis_list	pelvis_rotation	pelvis_tx	pelvis_ty	pelvis_tz	hip_flexion_l	hip_adduction_l	hip_rotation_l	hip_flexion_r	hip_adduction_r	hip_rotation_r	knee_angle_l	knee_angle_r	ankle_angle_l	ankle_angle_r	subtalar_angle_l	subtalar_angle_r	tmt_angle_l	tmt_angle_r	mtp_angle_l	mtp_angle_r	lumbar_extension	lumbar_bending	lumbar_rotation	arm_flex_l	arm_add_l	arm_rot_l	arm_flex_r	arm_add_r	arm_rot_r	elbow_flex_l	elbow_flex_r	pro_sup_l	pro_sup_r	glut_med1_l/activation	glut_med2_l/activation	glut_med3_l/activation	glut_min1_l/activation	glut_min2_l/activation	glut_min3_l/activation	semimem_l/activation	semiten_l/activation	bifemlh_l/activation	bifemsh_l/activation	sar_l/activation	add_long_l/activation	add_brev_l/activation	add_mag1_l/activation	add_mag2_l/activation	add_mag3_l/activation	tfl_l/activation	pect_l/activation	grac_l/activation	glut_max1_l/activation	glut_max2_l/activation	glut_max3_l/activation	iliacus_l/activation	psoas_l/activation	quad_fem_l/activation	gem_l/activation	peri_l/activation	rect_fem_l/activation	vas_med_l/activation	vas_int_l/activation	vas_lat_l/activation	med_gas_l/activation	lat_gas_l/activation	soleus_l/activation	tib_post_l/activation	flex_dig_l/activation	flex_hal_l/activation	tib_ant_l/activation	per_brev_l/activation	per_long_l/activation	per_tert_l/activation	ext_dig_l/activation	ext_hal_l/activation	ercspn_l/activation	intobl_l/activation	extobl_l/activation	glut_med1_r/activation	glut_med2_r/activation	glut_med3_r/activation	glut_min1_r/activation	glut_min2_r/activation	glut_min3_r/activation	semimem_r/activation	semiten_r/activation	bifemlh_r/activation	bifemsh_r/activation	sar_r/activation	add_long_r/activation	add_brev_r/activation	add_mag1_r/activation	add_mag2_r/activation	add_mag3_r/activation	tfl_r/activation	pect_r/activation	grac_r/activation	glut_max1_r/activation	glut_max2_r/activation	glut_max3_r/activation	iliacus_r/activation	psoas_r/activation	quad_fem_r/activation	gem_r/activation	peri_r/activation	rect_fem_r/activation	vas_med_r/activation	vas_int_r/activation	vas_lat_r/activation	med_gas_r/activation	lat_gas_r/activation	soleus_r/activation	tib_post_r/activation	flex_dig_r/activation	flex_hal_r/activation	tib_ant_r/activation	per_brev_r/activation	per_long_r/activation	per_tert_r/activation	ext_dig_r/activation	ext_hal_r/activation	ercspn_r/activation	intobl_r/activation	extobl_r/activation	
          1.70145601	         -2.93017642	          0.94528057	         -7.37729860	          2.12682002	          0.85579484	          0.00380199	         32.43398357	         -0.02112548	         -5.55466987	        -18.02013747	         -1.14875378	          6.24140238	        -16.39962337	         -9.22038215	          1.87753295	         -4.11734482	          4.58651241	          9.17242882	         -5.53594710	         -7.06706452	          0.23819529	         40.85805994	         -0.11600849	          1.63261159	          2.24603652	        -10.89959542	        -13.64717903	          8.04970266	          3.77016571	        -13.45687172	         14.27034701	         19.87254615	         35.45968793	         86.51662706	         86.51662706	          0.05000022	          0.05000027	          0.05001709	          0.05000021	          0.05000028	          0.05000082	          0.05945238	          0.05000099	          0.05945247	          0.05000024	          0.05765512	          0.11887980	          0.15684093	          0.11035916	          0.05430790	          0.05102147	          0.05945241	          0.05074286	          0.05001831	          0.05000195	          0.05945118	          0.05945245	          0.06948832	          0.09994133	          0.28131261	          0.09368838	          0.05000098	          0.05000806	          0.08800816	          0.09911147	          0.08733277	          0.07225769	          0.08405580	          0.05945253	          0.05945256	          0.05000796	          0.06214874	          0.39577964	          0.26721630	          0.14009929	          0.07444493	          0.64523174	          0.05541982	          0.05000004	          0.16166761	          0.14131369	          0.33294633	          0.08749832	          0.05945324	          0.29182464	          0.18253091	          0.08967094	          0.05000160	          0.05000022	          0.05000014	          0.05387834	          0.08341555	          0.07531334	          0.05000305	          0.05000067	          0.05000153	          0.05000071	          0.23468726	          0.05079647	          0.05000050	          0.05000126	          0.05000090	          0.05000087	          0.31904074	          0.48050842	          0.05000008	          0.05000024	          0.05000022	          0.16766376	          0.10584160	          0.05000540	          0.08406184	          0.26512820	          0.35010773	          0.27629486	          0.23669968	          0.14950839	          0.24038553	          0.05000001	          0.15944711	          0.16216839	          0.05000017	          0.05000004	          0.05000012	          0.05000001	          0.05000012	          0.06126318	
          1.71279905	         -2.92621727	          1.02800142	         -7.60341704	          2.14435915	          0.85490990	          0.00355542	         31.92397760	          0.35221935	         -5.35889208	        -17.85278529	         -1.50854289	          5.96040652	        -16.70627935	        -11.12178665	          1.53241113	         -4.86706615	          3.85596419	         10.18197730	         -5.96178960	         -8.46385397	          0.08098090	         42.30312255	          0.08809531	          1.35382618	          2.31887381	        -12.04454598	        -13.63014908	          8.10618346	          3.54935073	        -13.47587559	         14.74468637	         19.63494704	         36.51673100	         86.51662706	         86.51662706	          0.05000006	          0.05000010	          0.05000008	          0.05000033	          0.05000029	          0.05000017	          0.05000002	          0.05000019	          0.05000005	          0.05945254	          0.07069708	          0.09998370	          0.13190603	          0.22321669	          0.13762990	          0.05000012	          0.05000022	          0.08404330	          0.05945278	          0.05000015	          0.05000007	          0.05000015	          0.08405629	          0.08405626	          0.52835771	          0.16188007	          0.07922150	          0.07069219	          0.21924207	          0.22700440	          0.20264013	          0.06076923	          0.07069153	          0.05000000	          0.05000004	          0.05945081	          0.05226762	          0.54428257	          0.24092627	          0.13215009	          0.47297928	          0.72417027	          0.34432460	          0.05000001	          0.13596361	          0.11884581	          0.28001030	          0.07358672	          0.05000066	          0.24542675	          0.15350983	          0.07541392	          0.05000306	          0.05000036	          0.05000051	          0.05000021	          0.07015318	          0.15051063	          0.14514336	          0.08405500	          0.05001183	          0.14032891	          0.19737370	          0.07068861	          0.05000237	          0.05000230	          0.05000147	          0.05000119	          0.26831555	          0.40411103	          0.05000037	          0.05000267	          0.05000081	          0.14100642	          0.08901598	          0.19979253	          0.07069878	          0.22297469	          0.29444308	          0.23236593	          0.19906616	          0.12573776	          0.20216601	          0.05000016	          0.13409630	          0.14102622	          0.05000043	          0.09133028	          0.05000044	          0.05000001	          0.07069299	          0.06960972	
          1.72414209	         -2.91650755	          1.12362305	         -7.79378113	          2.16216590	          0.85384914	          0.00331512	         31.24983770	          0.70227046	         -5.09639181	        -17.61170073	         -1.86947777	          5.66650605	        -17.44082091	        -13.18794782	          1.56785179	         -5.67153081	          3.05008855	         11.12047142	         -5.74256059	         -9.61908243	         -0.04870585	         42.88891443	          0.30766482	          1.04732932	          2.37905732	        -13.17846164	        -13.62429771	          8.25898092	          3.25763009	        -13.50309447	         15.15946647	         19.36665091	         37.56024959	         86.51662706	         86.51662706	          0.27276781	          0.05000029	          0.24606632	          0.05000041	          0.05000028	          0.32050371	          0.06436847	          0.05000010	          0.06400432	          0.05000004	          0.05945681	          0.08408707	          0.11292664	          0.18772695	          0.14434992	          0.09790733	          0.05000104	          0.07068285	          0.05000075	          0.05000060	          0.06972148	          0.08740488	          0.07069196	          0.07069193	          0.44435259	          0.13614237	          0.19591203	          0.05945264	          0.18449051	          0.20874333	          0.18377888	          0.05544784	          0.05945231	          0.05945250	          0.05000001	          0.05000018	          0.05000039	          0.45774551	          0.22693957	          0.11113925	          0.54681167	          0.68690489	          0.35045488	          0.05000001	          0.11434638	          0.09995017	          0.36544349	          0.06188697	          0.05000004	          0.20640605	          0.12910290	          0.06342367	          0.05000118	          0.05000025	          0.05000029	          0.05000004	          0.05899943	          0.12658220	          0.28449576	          0.07069149	          0.07065059	          0.11801821	          0.16599281	          0.05945114	          0.05000030	          0.05000228	          0.05000243	          0.05001016	          0.22565535	          0.38098256	          0.05000011	          0.05000026	          0.05000005	          0.11858741	          0.07486318	          0.16802699	          0.05945825	          0.18752329	          0.24762873	          0.19542139	          0.16741609	          0.10574647	          0.17002313	          0.06370194	          0.18030856	          0.16133106	          0.05000020	          0.21267700	          0.08736178	          0.06834177	          0.05945331	          0.05945257	
          1.73548513	         -2.90289238	          1.22609675	         -7.94761259	          2.18001461	          0.85267923	          0.00306505	         30.41910958	          1.04064370	         -4.80946035	        -17.24504641	         -2.22179137	          5.36377065	        -18.11999483	        -15.49498995	          1.60131480	         -6.54939163	          2.22750993	         11.95760001	         -5.66626363	        -10.37919611	         -0.08332649	         42.39429898	          0.52385069	          0.72445878	          2.42713855	        -14.26018613	        -13.62802151	          8.51162795	          2.93147363	        -13.54017301	         15.53177703	         19.05937387	         38.57724281	         86.51662706	         86.51662706	          0.31695728	          0.33149512	          0.45123589	          0.22145740	          0.30571331	          0.31874479	          0.05413439	          0.08135811	          0.05382866	          0.08405638	          0.05000387	          0.07071784	          0.09497212	          0.15787978	          0.12140029	          0.11274074	          0.05000029	          0.05944502	          0.08405572	          0.23265358	          0.17741087	          0.12772488	          0.05945246	          0.05945243	          0.37370373	          0.11449706	          0.22846758	          0.05000010	          0.15515802	          0.27297016	          0.23403905	          0.05000000	          0.05000001	          0.05000000	          0.05000013	          0.05000051	          0.05000014	          0.54680875	          0.19085787	          0.09347023	          0.45987288	          0.59968025	          0.29473518	          0.07270573	          0.09616613	          0.08405880	          0.30734065	          0.05204741	          0.05000004	          0.29237804	          0.10857654	          0.05333982	          0.06533575	          0.05848782	          0.05085365	          0.05700628	          0.05000120	          0.12761962	          0.23926305	          0.05945218	          0.05941806	          0.09925430	          0.13962098	          0.05000065	          0.05000083	          0.05000117	          0.05000084	          0.05000057	          0.19940030	          0.36577816	          0.05000005	          0.05000031	          0.05000014	          0.09973286	          0.06296049	          0.14131191	          0.05000483	          0.15770842	          0.20825755	          0.16435077	          0.15281941	          0.08893370	          0.14299138	          0.07072857	          0.17516900	          0.14677393	          0.08453265	          0.17886300	          0.07347198	          0.10536386	          0.05000066	          0.05000005	
